<?xml version="1.0" encoding="UTF-8"?>
<svg width="32px" height="32px" viewBox="0 0 32 32" version="1.1" xmlns="http://www.w3.org/2000/svg" xmlns:xlink="http://www.w3.org/1999/xlink">
    <!-- Generator: Sketch 55.2 (78181) - https://sketchapp.com -->
    <title>jeep</title>
    <desc>Created with Sketch.</desc>
    <g id="jeep" stroke="none" stroke-width="1" fill="none" fill-rule="evenodd">
        <g id="Group" transform="translate(4.000000, 4.000000)" fill-rule="nonzero">
            <g id="Background">
                <circle id="Oval" fill="#3F51B5" cx="12" cy="12" r="12"></circle>
                <path d="M12.75,0.0230564881 C6.47195271,0.410203787 1.5,5.624471 1.5,12 C1.5,18.375529 6.47195271,23.5897962 12.75,23.9769435 C12.5019634,23.9922391 12.251888,24 12,24 C5.372583,24 -3.55271368e-15,18.627417 -3.55271368e-15,12 C-3.55271368e-15,5.372583 5.372583,0 12,0 C12.251888,0 12.5019634,0.00776085382 12.75,0.0230564881 Z" id="Combined-Shape" fill-opacity="0.07" fill="#000000"></path>
                <path d="M24,0.0230564881 C17.7219527,0.410203787 12.75,5.624471 12.75,12 C12.75,18.375529 17.7219527,23.5897962 24,23.9769435 C23.7519634,23.9922391 23.501888,24 23.25,24 C16.622583,24 11.25,18.627417 11.25,12 C11.25,5.372583 16.622583,0 23.25,0 C23.501888,0 23.7519634,0.00776085382 24,0.0230564881 Z" id="Combined-Shape" fill-opacity="0.187216938" fill="#FFFFFF" transform="translate(17.625000, 12.000000) scale(-1, 1) translate(-17.625000, -12.000000) "></path>
            </g>
        </g>
        <g id="jeep-front" transform="translate(9.000000, 11.000000)" fill="#FFFFFF" fill-rule="nonzero">
            <path d="M13.0639004,2.27072821 L13.0639004,3.92495604 L13.297886,3.92495604 L13.297886,4.2264995 L12.8696052,4.2264995 L12.8696052,3.76836687 L11.995316,3.76836687 L11.995316,0 L2.00460553,0 L2.00460553,3.76836687 L1.13031639,3.76836687 L1.13031639,4.2264995 L0.702035511,4.2264995 L0.702035511,3.92495604 L0.936021201,3.92495604 L0.936021201,2.27072821 L0,2.27072821 L0,3.92495604 L0.23398569,3.92495604 L0.23398569,4.66869901 L1.13031639,4.66869901 L1.13031639,9.32013097 L1.91338014,9.32013097 L1.91338014,11 L4.2535508,11 L4.2535508,9.32013097 L9.7464492,9.32013097 L9.7464492,11 L12.0866199,11 L12.0866199,9.32013097 L12.8696836,9.32013097 L12.8696836,4.66877312 L13.7660143,4.66877312 L13.7660143,3.92503015 L14,3.92503015 L14,2.27072821 C14,2.27072821 13.0639004,2.27072821 13.0639004,2.27072821 Z M3.08487738,6.54406365 C2.63651593,6.54406365 2.27239874,6.19961195 2.27239874,5.77512413 C2.27239874,5.3515256 2.63651593,5.00751854 3.08487738,5.00751854 C3.53465075,5.00751854 3.8982973,5.3515256 3.8982973,5.77512413 C3.8982973,6.19961195 3.53465075,6.54406365 3.08487738,6.54406365 Z M5.30754534,8.11388303 L4.83949552,8.11388303 L4.83949552,4.97342909 L5.30754534,4.97342909 L5.30754534,8.11388303 Z M6.50437862,8.11388303 L6.0363288,8.11388303 L6.0363288,4.97342909 L6.50437862,4.97342909 L6.50437862,8.11388303 Z M7.70395728,8.11388303 L7.23590746,8.11388303 L7.23590746,4.97342909 L7.70395728,4.97342909 L7.70395728,8.11388303 Z M7.89676212,3.76844098 L2.94070517,3.76844098 L2.94070517,0.884473129 L11.0592948,0.884473129 L11.0592948,3.76844098 L10.8210734,3.76844098 C10.8271917,3.71938181 10.8369967,3.67113782 10.8369967,3.62074471 C10.8369967,2.8509159 10.1737888,2.22433691 9.35895698,2.22433691 C8.54412514,2.22433691 7.8809173,2.8509159 7.8809173,3.62074471 C7.88083886,3.67165657 7.89017318,3.71938181 7.89676212,3.76844098 Z M8.90118276,8.11388303 L8.43313294,8.11388303 L8.43313294,4.97342909 L8.90118276,4.97342909 L8.90118276,8.11388303 Z M8.36481194,3.76844098 C8.35641889,3.71982645 8.34888868,3.67113782 8.34888868,3.62074471 C8.34888868,3.09450729 8.80195651,2.66646231 9.35895698,2.66646231 C9.91595744,2.66646231 10.3690253,3.09450729 10.3690253,3.62074471 C10.3690253,3.67158246 10.3611029,3.7202711 10.353102,3.76844098 L8.36481194,3.76844098 Z M10.9141813,6.54406365 C10.4653493,6.54406365 10.1017027,6.19961195 10.1017027,5.77512413 C10.1017027,5.3515256 10.4653493,5.00751854 10.9141813,5.00751854 C11.3634841,5.00751854 11.7276058,5.3515256 11.7276058,5.77512413 C11.7290916,6.19961195 11.3635625,6.54406365 10.9141813,6.54406365 Z" id="Shape"></path>
        </g>
    </g>
</svg>