<?xml version="1.0" encoding="UTF-8"?>
<svg width="32px" height="32px" viewBox="0 0 32 32" version="1.1" xmlns="http://www.w3.org/2000/svg" xmlns:xlink="http://www.w3.org/1999/xlink">
    <!-- Generator: Sketch 52.5 (67469) - http://www.bohemiancoding.com/sketch -->
    <title>plane</title>
    <desc>Created with Sketch.</desc>
    <g id="plane" stroke="none" stroke-width="1" fill="none" fill-rule="evenodd">
        <g id="Group" transform="translate(4.000000, 4.000000)" fill-rule="nonzero">
            <g id="Background">
                <circle id="Oval" fill="#3F51B5" cx="12" cy="12" r="12"></circle>
                <path d="M12.75,0.0230564881 C6.47195271,0.410203787 1.5,5.624471 1.5,12 C1.5,18.375529 6.47195271,23.5897962 12.75,23.9769435 C12.5019634,23.9922391 12.251888,24 12,24 C5.372583,24 -3.55271368e-15,18.627417 -3.55271368e-15,12 C-3.55271368e-15,5.372583 5.372583,0 12,0 C12.251888,0 12.5019634,0.00776085382 12.75,0.0230564881 Z" id="Combined-Shape" fill-opacity="0.07" fill="#000000"></path>
                <path d="M24,0.0230564881 C17.7219527,0.410203787 12.75,5.624471 12.75,12 C12.75,18.375529 17.7219527,23.5897962 24,23.9769435 C23.7519634,23.9922391 23.501888,24 23.25,24 C16.622583,24 11.25,18.627417 11.25,12 C11.25,5.372583 16.622583,0 23.25,0 C23.501888,0 23.7519634,0.00776085382 24,0.0230564881 Z" id="Combined-Shape" fill-opacity="0.187216938" fill="#FFFFFF" transform="translate(17.625000, 12.000000) scale(-1, 1) translate(-17.625000, -12.000000) "></path>
                <g id="noun_Drone_232675_000000" transform="translate(6.000000, 3.000000)" fill="#FFFFFF">
                    <path d="M10.3270679,8.18198316 C9.42928925,8.18198316 8.77635928,8.45627365 7.57251965,8.45627365 L7.34807498,8.45627365 L7.04201406,6.85272926 L7.73575215,6.89492779 C7.87858058,6.89492779 8.00100494,6.78943145 8.00100494,6.6206373 C8.00100494,6.47294243 7.87858058,6.36744609 7.73575215,6.36744609 L6.93999375,6.38854535 L5.83817443,0.227559011 C5.71575006,-0.194426355 4.7975673,0.0798641329 4.7975673,0.185360474 L5.26686071,6.40964462 L4.2670617,6.43074389 L4.18544545,6.26194974 C4.14463733,6.21975121 4.12423327,6.26194974 4.12423327,6.34634682 L4.12423327,6.97932487 C4.12423327,7.0215234 4.14463733,7.06372194 4.18544545,7.0215234 L4.28746576,6.87382852 L4.28746576,6.85272926 L5.30766883,6.87382852 L5.40968914,8.30857877 L5.00160791,8.45627365 C4.85877948,8.47737292 4.73635511,8.54067072 4.73635511,8.6883656 L4.73635511,8.7516634 L1.59412965,8.89935828 L0.941199682,6.11425487 C0.92079562,6.00875852 0.839179374,5.96655999 0.757563128,5.96655999 L0.206653469,5.96655999 C0.0842291005,5.96655999 -0.0177912067,6.0931556 0.00261285474,6.19865194 L0.329077838,9.51123706 L0.0230169162,12.8027229 C0.00261285474,12.9504178 0.104633162,13.0348149 0.206653469,13.0348149 L0.757563128,13.0559141 C0.839179374,13.0559141 0.92079562,12.9715171 0.941199682,12.9082193 L1.59412965,10.1653144 L4.75675917,10.3130093 L4.75675917,10.3341085 C4.75675917,10.4607041 4.85877948,10.5451012 5.02201197,10.5662005 L5.4300932,10.6716968 L5.30766883,12.1697449 L4.28746576,12.1908441 L4.2670617,12.1697449 L4.18544545,12.02205 C4.14463733,11.9798515 4.12423327,12.02205 4.12423327,12.0642485 L4.12423327,12.6972266 C4.12423327,12.7605244 4.14463733,12.8238222 4.18544545,12.7605244 L4.28746576,12.6128295 L5.28726477,12.6339288 L4.81797136,18.7949151 C4.81797136,18.9215107 5.73615412,19.1958012 5.83817443,18.7738158 L6.96039781,12.6339288 L7.75615621,12.655028 C7.89898464,12.655028 8.02140901,12.5284324 8.02140901,12.4018368 C8.02140901,12.2541419 7.89898464,12.1064471 7.75615621,12.1064471 L7.06241812,12.0853478 L7.36847904,10.3763071 L7.59292372,10.3763071 C8.79676334,10.5872997 9.44969331,10.7560939 10.347472,10.7560939 C11.8369685,10.7560939 13,10.3130093 13,9.46903852 C12.9795959,8.62506779 11.8165644,8.18198316 10.3270679,8.18198316 Z M5.28637509,9.00823529 C5.2251629,8.91882353 5.40879946,8.91882353 5.42920352,9.00823529 C5.61284007,9.35098039 5.59243601,9.67882353 5.42920352,9.99176471 C5.40879946,10.0811765 5.24556696,10.0811765 5.28637509,9.99176471 C5.42920352,9.67882353 5.44960758,9.36588235 5.28637509,9.00823529 Z M11.8106516,10.0153597 C10.7940337,10.3318487 9.73976331,10.3318487 8.72314544,10.0153597 C8.64784041,9.99426045 8.64784041,9.86766484 8.72314544,9.86766484 C9.73976331,10.1841539 10.7752074,10.1841539 11.8106516,9.86766484 C11.9424354,9.84656557 11.9612616,9.95206192 11.8106516,10.0153597 Z" id="Shape"></path>
                </g>
            </g>
        </g>
    </g>
</svg>